# xmcd CD database file
#
# Track frame offsets:
#	182
#	15340
#	25315
#	36367
#	49957
#	64580
#	78107
#	92085
#	110872
#	124820
#	138040
#	150072
#
# Disc length: 2160 seconds
#
# Revision: 0
# Processed by: cddbd v1.5.2PL0 Copyright (c) Steve Scherf et al.
# Submitted via: CDex 1.70beta2
#
DISCID=8c086e0c
DTITLE=Cash Tommy - Solid Gold Country
DYEAR=1996
DGENRE=Country
TTITLE0=I´m No Stranger To The Rain
TTITLE1=I Love
TTITLE2=Rise and Shine (w. Mark Cash)
TTITLE3=Laura
TTITLE4=Forever And Ever, Amen
TTITLE5=I Still Miss Someone
TTITLE6=God Bless The U.S.A.
TTITLE7=Back Home Again
TTITLE8=Silver Haired Daddy
TTITLE9=I´ll Go To My Grave Loving You
TTITLE10=She Thinks I Still Care
TTITLE11=Thank God For Kids
EXTD=YEAR: 1996
EXTT0=
EXTT1=
EXTT2=
EXTT3=
EXTT4=
EXTT5=
EXTT6=
EXTT7=
EXTT8=
EXTT9=
EXTT10=
EXTT11=
PLAYORDER=
